<svg width="29" height="31" viewBox="0 0 29 31" fill="none" xmlns="http://www.w3.org/2000/svg">
<g id="Path Copy 2" clip-path="url(#clip0_1_19)">
<g id="Page 1">
<path id="Path Copy" fill-rule="evenodd" clip-rule="evenodd" d="M22.9499 27.1286C22.6676 24.9716 21.7548 22.8426 20.4287 20.9702C19.4987 19.6215 18.3936 18.3789 17.1954 17.2173C17.0743 17.5509 16.8895 17.8597 16.6771 18.1296C16.2598 18.6571 15.7195 19.0315 15.1535 19.3112C14.584 19.5876 13.9759 19.7456 13.3518 19.7888C12.7281 19.8241 12.0865 19.7721 11.4407 19.4699C11.9291 18.9635 12.403 18.6145 12.8777 18.3047C13.3495 17.9945 13.8246 17.752 14.289 17.5206C14.7533 17.2899 15.225 17.0993 15.7062 16.9036C15.9667 16.7961 16.2294 16.6925 16.517 16.5766C16.25 16.3312 15.9805 16.088 15.7073 15.8498C15.3596 15.5501 15.0055 15.2577 14.6478 14.9688C14.5392 15.3952 14.3178 15.7886 14.0546 16.1229C13.6374 16.6506 13.0971 17.0246 12.5311 17.3043C11.9614 17.5809 11.3533 17.7389 10.7295 17.7819C10.106 17.8174 9.46415 17.7652 8.81856 17.4632C9.30692 16.9569 9.78065 16.608 10.2554 16.2978C10.7271 15.988 11.2022 15.7455 11.6668 15.5139C12.1308 15.2832 12.6025 15.0926 13.0838 14.8971C13.3933 14.7688 13.7054 14.6476 14.06 14.5024C13.5379 14.0953 13.0066 13.6988 12.4663 13.3132C12.3335 13.8757 12.0555 14.3791 11.6798 14.7952C11.2316 15.3173 10.6374 15.7071 9.99595 15.953C9.35494 16.2038 8.65779 16.2989 7.97974 16.2282C7.30669 16.1503 6.62764 15.9371 6.08718 15.4321C6.73837 15.1125 7.27623 14.8968 7.79894 14.6816L9.28221 14.0975L10.7586 13.5319C11.027 13.4459 11.2825 13.3282 11.5781 13.233C11.7492 13.1784 11.9178 13.1136 12.1003 13.0531C11.4608 12.6046 10.81 12.1708 10.1501 11.7499C10.0798 12.3538 9.7493 12.9141 9.29974 13.3353C8.77034 13.8102 8.11031 14.0985 7.45246 14.2318C6.79033 14.3658 6.12616 14.3341 5.49656 14.1761C4.87067 14.0094 4.26307 13.7366 3.76251 13.2155C4.41207 12.9271 4.97734 12.7601 5.52244 12.6196C6.06338 12.4756 6.57765 12.3872 7.06483 12.2824L8.50671 11.9877C8.91627 11.8845 9.33267 11.7605 9.86414 11.57C9.22355 11.1674 8.57322 10.7787 7.91763 10.3982C7.84953 10.7672 7.64769 11.0673 7.41105 11.3101C7.13001 11.5882 6.78137 11.7933 6.40607 11.9012C6.03064 12.0055 5.63255 12.0388 5.24979 11.9525C4.86794 11.8751 4.4998 11.6989 4.19659 11.3735C4.38259 11.2281 4.55016 11.1542 4.71082 11.0603C4.87025 10.9667 5.0226 10.9125 5.16755 10.8395C5.46106 10.7222 5.72773 10.611 6.00339 10.5396C6.27763 10.4605 6.55261 10.3953 6.86019 10.3429C7.09819 10.303 7.34642 10.271 7.64694 10.2423C7.14978 9.9574 6.64799 9.68019 6.14201 9.41029C5.98363 9.63036 5.74478 9.78764 5.50636 9.89522C5.18563 10.0365 4.83898 10.0942 4.50269 10.0885C4.16345 10.0898 3.83505 10.016 3.52408 9.90463C3.37135 9.83929 3.2206 9.76928 3.07823 9.68202C2.9383 9.58408 2.80037 9.48892 2.6777 9.35793C2.85412 9.3074 3.01546 9.2929 3.1752 9.27566C3.33467 9.25679 3.48847 9.24612 3.63891 9.24505C3.93991 9.22822 4.22779 9.23792 4.50961 9.23747C4.79176 9.24309 5.068 9.24965 5.35007 9.246C5.501 9.24376 5.65205 9.24253 5.81133 9.23391C5.67886 9.16435 4.29509 8.45939 3.76878 8.21284C4.25675 8.40097 4.74041 8.60064 5.22274 8.80443C5.10361 8.62783 4.98367 8.47472 4.86492 8.3217C4.69142 8.09889 4.51344 7.88699 4.33245 7.66982C4.15676 7.44925 3.96906 7.23033 3.79395 6.98424C3.70087 6.86609 3.61292 6.73908 3.52792 6.60245C3.44148 6.46631 3.35171 6.33151 3.28074 6.16198C3.45979 6.17607 3.61985 6.22469 3.78361 6.27239C3.9408 6.32943 4.08943 6.4035 4.23568 6.48222C4.51688 6.65565 4.77989 6.86629 4.99113 7.13197C5.20566 7.39148 5.37766 7.69852 5.46808 8.0375C5.53881 8.31371 5.56348 8.6259 5.46549 8.90534C5.68932 9.00112 7.15264 9.66653 7.60726 9.88502C7.3633 9.55351 7.1853 9.29269 7.0277 9.03612C6.86503 8.76968 6.73297 8.51857 6.61196 8.25989C6.48421 8.0051 6.39246 7.73003 6.28764 7.43137C6.24729 7.27455 6.18775 7.12365 6.15299 6.9415C6.11767 6.75871 6.06323 6.58365 6.05018 6.34748C6.49421 6.36281 6.8687 6.52457 7.17816 6.76166C7.49465 6.99388 7.73166 7.31638 7.90018 7.66823C8.06608 8.0227 8.14106 8.42044 8.11701 8.8157C8.08684 9.199 7.97116 9.59742 7.66332 9.91224C8.37618 10.255 9.08313 10.6118 9.78363 10.9816C9.6053 10.5798 9.46008 10.2753 9.32726 9.97445C9.14759 9.59774 9.00016 9.24133 8.87469 8.85607C8.74963 8.47084 8.63002 8.06713 8.55659 7.61315C8.48094 7.15658 8.43203 6.66933 8.47407 6.04762C9.09187 6.17868 9.54488 6.49829 9.92386 6.87179C10.2979 7.25133 10.5819 7.70863 10.7555 8.22275C10.9255 8.73618 10.9951 9.30741 10.8855 9.87582C10.7845 10.36 10.5531 10.8438 10.1494 11.1725C10.184 11.1911 10.2191 11.2082 10.2537 11.2269C10.9109 11.5817 11.5609 11.9513 12.2037 12.3334C12.176 12.1605 12.1544 11.9981 12.111 11.836C12.0824 11.6938 12.0589 11.5585 12.0405 11.4281C12.0056 11.2943 11.9771 11.1662 11.955 11.0416C11.8391 10.5424 11.7596 10.0839 11.6413 9.60702C11.5339 9.13081 11.4257 8.64305 11.3298 8.10736C11.2324 7.56893 11.143 7.00376 11.1048 6.30116C11.7924 6.49778 12.3088 6.92573 12.7254 7.42101C13.1394 7.92231 13.4284 8.52656 13.5792 9.17635C13.7375 9.82272 13.7111 10.5334 13.5108 11.1812C13.456 11.3435 13.3941 11.502 13.3265 11.655C13.2445 11.8061 13.1502 11.9506 13.0545 12.0887C13.003 12.1566 12.9572 12.2248 12.9015 12.2888C12.8388 12.3503 12.7803 12.4118 12.7121 12.4678C12.6736 12.5018 12.6338 12.5332 12.5948 12.5657C13.2663 12.9726 13.9283 13.3973 14.581 13.8378C14.5598 13.3616 14.576 12.951 14.5663 12.5476L14.5929 10.9994C14.6098 10.4941 14.6265 9.98409 14.6581 9.43482C14.6922 8.88113 14.7331 8.31006 14.8371 7.60411C15.4744 7.95052 15.8916 8.50805 16.1786 9.1051C16.4667 9.70747 16.595 10.3802 16.5782 11.0521C16.5628 11.7228 16.4024 12.3993 16.066 12.9854C15.8226 13.4429 15.473 13.8446 15.0329 14.146C15.4695 14.4486 15.9022 14.7575 16.3289 15.0765C16.6221 15.298 16.912 15.5252 17.2003 15.755C17.1844 15.3169 17.1977 14.9323 17.1885 14.5543L17.2155 13.0065C17.2322 12.5006 17.2487 11.9908 17.2806 11.4419C17.3148 10.8878 17.3555 10.3169 17.4592 9.61118C18.0967 9.95741 18.5142 10.5147 18.8009 11.112C19.0891 11.714 19.2177 12.3871 19.2008 13.0588C19.1851 13.7297 19.0251 14.4062 18.6886 14.9921C18.4487 15.4428 18.1067 15.8399 17.6754 16.1398C19.1003 17.3151 20.4455 18.6078 21.6215 20.0801C22.0152 20.5546 22.3657 21.0671 22.7211 21.5777L23.2114 22.3765C23.378 22.6415 23.5088 22.9295 23.6586 23.2062C23.9711 23.826 24.5209 24.7966 24.746 25.464C24.7569 25.4964 24.1583 26.0513 22.9499 27.1286Z" fill="#C08D5D"/>
</g>
</g>
<defs>
<clipPath id="clip0_1_19">
<rect width="13.0402" height="28.9783" fill="white" transform="matrix(-0.760439 0.649409 0.649409 0.760439 9.91626 0.4953)"/>
</clipPath>
</defs>
</svg>
